<mxfile host="app.diagrams.net" modified="2023-09-06T12:33:41.503Z" agent="Mozilla/5.0 (Windows NT 10.0; Win64; x64) AppleWebKit/537.36 (KHTML, like Gecko) Chrome/116.0.0.0 Safari/537.36" version="21.7.2" etag="HHqAGSeVG8FlWBDR8qSE" type="github">
  <diagram name="Page-1" id="yij7gsBIheg1dfzihiFr">
    <mxGraphModel>
      <root>
        <mxCell id="0" />
        <mxCell id="1" parent="0" />
      </root>
    </mxGraphModel>
  </diagram>
</mxfile>
